<?xml version="1.0" encoding="us-ascii" standalone="no"?><svg xmlns="http://www.w3.org/2000/svg" xmlns:xlink="http://www.w3.org/1999/xlink" contentStyleType="text/css" height="1362px" preserveAspectRatio="none" style="width:1141px;height:1362px;background:#FFFFFF;" version="1.1" viewBox="0 0 1141 1362" width="1141px" zoomAndPan="magnify"><defs/><g><!--cluster PkgAuth--><g id="cluster_PkgAuth"><rect fill="#F7F9F9" height="144" rx="2.5" ry="2.5" style="stroke:#BDC3C7;stroke-width:1.0;" width="195" x="164" y="112"/><text fill="#444444" font-family="Segoe UI" font-size="13" font-weight="bold" lengthAdjust="spacing" textLength="48" x="237.5" y="128.0283">Accesso</text></g><!--cluster PkgIssues--><g id="cluster_PkgIssues"><rect fill="#EBF5FB" height="430" rx="2.5" ry="2.5" style="stroke:#BDC3C7;stroke-width:1.0;" width="654" x="412" y="7"/><text fill="#444444" font-family="Segoe UI" font-size="13" font-weight="bold" lengthAdjust="spacing" textLength="95" x="691.5" y="23.0283">Gestione Issues</text></g><!--cluster PkgAdmin--><g id="cluster_PkgAdmin"><rect fill="#F4ECF7" height="879" rx="2.5" ry="2.5" style="stroke:#BDC3C7;stroke-width:1.0;" width="336" x="799" y="477"/><text fill="#444444" font-family="Segoe UI" font-size="13" font-weight="bold" lengthAdjust="spacing" textLength="201" x="866.5" y="493.0283">Gestione Admin(Team Manager)</text></g><!--cluster GrpStruct--><g id="cluster_GrpStruct"><rect fill="#FFFFFF" height="288" rx="2.5" ry="2.5" style="stroke:#BDC3C7;stroke-width:1.0;" width="272" x="831" y="537"/><text fill="#444444" font-family="Segoe UI" font-size="13" font-weight="bold" lengthAdjust="spacing" textLength="92" x="921" y="553.0283">Gestione Team</text></g><!--cluster GrpManag--><g id="cluster_GrpManag"><rect fill="#FFFFFF" height="475" rx="2.5" ry="2.5" style="stroke:#BDC3C7;stroke-width:1.0;" width="268" x="833" y="849"/><text fill="#444444" font-family="Segoe UI" font-size="13" font-weight="bold" lengthAdjust="spacing" textLength="108" x="913" y="865.0283">Gestione Progetti</text></g><g id="elem_UC_Auth"><ellipse cx="261.3306" cy="211.0397" fill="#FFFFFF" rx="73.3306" ry="20.5397" style="stroke:#7F8C8D;stroke-width:1.5;"/><text fill="#444444" font-family="Segoe UI" font-size="18" lengthAdjust="spacing" textLength="84" x="216.3306" y="218.0016">Autenticati</text></g><g id="elem_UC_Crea"><ellipse cx="553.0575" cy="71.9903" fill="#FFFFFF" rx="66.5575" ry="20.4903" style="stroke:#7F8C8D;stroke-width:1.5;"/><text fill="#444444" font-family="Segoe UI" font-size="18" lengthAdjust="spacing" textLength="75" x="512.5575" y="78.9522">CreaIssue</text></g><g id="elem_UC_View"><ellipse cx="552.7881" cy="164.1576" fill="#FFFFFF" rx="96.2881" ry="21.6576" style="stroke:#7F8C8D;stroke-width:1.5;"/><text fill="#444444" font-family="Segoe UI" font-size="18" lengthAdjust="spacing" textLength="123" x="488.2881" y="171.1195">VisualizzaIssues</text></g><g id="elem_UC_Filter"><ellipse cx="966.8358" cy="164.0495" fill="#FFFFFF" rx="74.8358" ry="20.5495" style="stroke:#7F8C8D;stroke-width:1.5;"/><text fill="#444444" font-family="Segoe UI" font-size="18" lengthAdjust="spacing" textLength="86" x="920.8358" y="171.0114">FiltraIssues</text></g><g id="elem_UC_Pull"><ellipse cx="552.8517" cy="256.0766" fill="#FFFFFF" rx="79.3517" ry="20.5766" style="stroke:#7F8C8D;stroke-width:1.5;"/><text fill="#444444" font-family="Segoe UI" font-size="18" lengthAdjust="spacing" textLength="92" x="503.8517" y="263.0385">PullRequest</text></g><g id="elem_UC_Arch"><ellipse cx="553.0457" cy="352.8091" fill="#FFFFFF" rx="117.0457" ry="25.8091" style="stroke:#7F8C8D;stroke-width:1.5;"/><text fill="#444444" font-family="Segoe UI" font-size="18" lengthAdjust="spacing" textLength="178" x="461.0457" y="359.7711">VisualizzaBugArchiviati</text></g><g id="elem_UC_CreaUser"><ellipse cx="967.0937" cy="594.0634" fill="#FFFFFF" rx="77.0937" ry="20.5634" style="stroke:#7F8C8D;stroke-width:1.5;"/><text fill="#444444" font-family="Segoe UI" font-size="18" lengthAdjust="spacing" textLength="89" x="919.5937" y="601.0254">CreaUtenza</text></g><g id="elem_UC_CreaTeam"><ellipse cx="966.8151" cy="685.0079" fill="#FFFFFF" rx="68.8151" ry="20.5079" style="stroke:#7F8C8D;stroke-width:1.5;"/><text fill="#444444" font-family="Segoe UI" font-size="18" lengthAdjust="spacing" textLength="78" x="924.8151" y="691.9698">CreaTeam</text></g><g id="elem_UC_AddMem"><ellipse cx="966.8874" cy="781.8775" fill="#FFFFFF" rx="119.8874" ry="26.3775" style="stroke:#7F8C8D;stroke-width:1.5;"/><text fill="#444444" font-family="Segoe UI" font-size="18" lengthAdjust="spacing" textLength="185" x="871.3874" y="788.8394">AggiungiMembroTeam</text></g><g id="elem_UC_CreaProj"><ellipse cx="967.1368" cy="997.1259" fill="#FFFFFF" rx="89.1368" ry="20.6259" style="stroke:#7F8C8D;stroke-width:1.5;"/><text fill="#444444" font-family="Segoe UI" font-size="18" lengthAdjust="spacing" textLength="105" x="911.6368" y="1004.0879">CreaProgetto</text></g><g id="elem_UC_AddProj"><ellipse cx="966.8539" cy="1093.9708" fill="#FFFFFF" rx="117.8539" ry="25.9708" style="stroke:#7F8C8D;stroke-width:1.5;"/><text fill="#444444" font-family="Segoe UI" font-size="18" lengthAdjust="spacing" textLength="180" x="873.8539" y="1100.9327">AssegnaProgettoTeam</text></g><g id="elem_UC_AssIss"><ellipse cx="967.1423" cy="1191.1326" fill="#FFFFFF" rx="90.6423" ry="20.6326" style="stroke:#7F8C8D;stroke-width:1.5;"/><text fill="#444444" font-family="Segoe UI" font-size="18" lengthAdjust="spacing" textLength="107" x="910.6423" y="1198.0945">AssegnaIssue</text></g><g id="elem_UC_Change"><ellipse cx="967.092" cy="1285.0184" fill="#FFFFFF" rx="103.092" ry="23.0184" style="stroke:#7F8C8D;stroke-width:1.5;"/><text fill="#444444" font-family="Segoe UI" font-size="18" lengthAdjust="spacing" textLength="142" x="893.092" y="1291.9803">CambiaStatoIssue</text></g><g id="elem_UC_Archive"><ellipse cx="967.1044" cy="906.0808" fill="#FFFFFF" rx="80.1044" ry="20.5808" style="stroke:#7F8C8D;stroke-width:1.5;"/><text fill="#444444" font-family="Segoe UI" font-size="18" lengthAdjust="spacing" textLength="93" x="917.6044" y="913.0427">ArchiviaBug</text></g><!--entity GenUser--><g id="elem_GenUser"><ellipse cx="46.5" cy="189.6211" fill="#BDC3C7" rx="8" ry="8" style="stroke:#7F8C8D;stroke-width:0.5;"/><path d="M46.5,197.6211 L46.5,224.6211 M33.5,205.6211 L59.5,205.6211 M46.5,224.6211 L33.5,239.6211 M46.5,224.6211 L59.5,239.6211 " fill="none" style="stroke:#7F8C8D;stroke-width:0.5;"/><text fill="#7F8C8D" font-family="Segoe UI" font-size="14" font-weight="bold" lengthAdjust="spacing" textLength="81" x="6" y="256.2285">GenericUser</text><text fill="#7F8C8D" font-family="Segoe UI" font-size="14" font-weight="bold" lengthAdjust="spacing" textLength="53" x="20" y="177.6074">&#171;Guest&#187;</text></g><!--entity LogUser--><g id="elem_LogUser"><ellipse cx="261.5" cy="327.6211" fill="#3498DB" rx="8" ry="8" style="stroke:#2980B9;stroke-width:0.5;"/><path d="M261.5,335.6211 L261.5,362.6211 M248.5,343.6211 L274.5,343.6211 M261.5,362.6211 L248.5,377.6211 M261.5,362.6211 L274.5,377.6211 " fill="none" style="stroke:#2980B9;stroke-width:0.5;"/><text fill="#3498DB" font-family="Segoe UI" font-size="14" font-weight="bold" lengthAdjust="spacing" textLength="81" x="221" y="394.2285">LoggedUser</text><text fill="#3498DB" font-family="Segoe UI" font-size="14" font-weight="bold" lengthAdjust="spacing" textLength="86" x="218.5" y="315.6074">&#171;Developer&#187;</text></g><!--entity Admin--><g id="elem_Admin"><ellipse cx="553" cy="760.6211" fill="#9B59B6" rx="8" ry="8" style="stroke:#8E44AD;stroke-width:0.5;"/><path d="M553,768.6211 L553,795.6211 M540,776.6211 L566,776.6211 M553,795.6211 L540,810.6211 M553,795.6211 L566,810.6211 " fill="none" style="stroke:#8E44AD;stroke-width:0.5;"/><text fill="#9B59B6" font-family="Segoe UI" font-size="14" font-weight="bold" lengthAdjust="spacing" textLength="44" x="531" y="827.2285">Admin</text><text fill="#9B59B6" font-family="Segoe UI" font-size="14" font-weight="bold" lengthAdjust="spacing" textLength="117" x="494.5" y="748.6074">&#171;Team Manager&#187;</text></g><!--reverse link UC_View to UC_Filter--><g id="link_UC_View_UC_Filter"><path d="M655.56,164 C729.37,164 824.03,164 891.84,164 " fill="none" id="UC_View-backto-UC_Filter" style="stroke:#555555;stroke-width:1.0;stroke-dasharray:7.0,7.0;"/><polygon fill="#555555" points="649.56,164,658.56,168,654.56,164,658.56,160,649.56,164" style="stroke:#555555;stroke-width:1.0;"/><text fill="#444444" font-family="Segoe UI" font-size="13" lengthAdjust="spacing" textLength="53" x="721" y="160.0283">&#171;extend&#187;</text></g><!--link GenUser to UC_Auth--><g id="link_GenUser_UC_Auth"><path d="M87.06,211 C115.34,211 148.19,211 181.96,211 " fill="none" id="GenUser-to-UC_Auth" style="stroke:#555555;stroke-width:1.0;"/><polygon fill="#555555" points="187.96,211,178.96,207,182.96,211,178.96,215,187.96,211" style="stroke:#555555;stroke-width:1.0;"/></g><!--link LogUser to UC_Crea--><g id="link_LogUser_UC_Crea"><path d="M304.71,312.6 C336.63,285.08 375,252 375,252 C375,252 396,117 396,117 C396,117 452.3251,100.7529 498.1551,87.5329 " fill="none" id="LogUser-to-UC_Crea" style="stroke:#555555;stroke-width:1.0;"/><polygon fill="#555555" points="503.92,85.87,494.164,84.5211,499.1159,87.2558,496.3812,92.2077,503.92,85.87" style="stroke:#555555;stroke-width:1.0;"/></g><!--link LogUser to UC_View--><g id="link_LogUser_UC_View"><path d="M304.71,312.6 C336.63,285.08 375,252 375,252 C375,252 396,210 396,210 C396,210 443.8051,195.9073 488.1551,182.8273 " fill="none" id="LogUser-to-UC_View" style="stroke:#555555;stroke-width:1.0;"/><polygon fill="#555555" points="493.91,181.13,484.1461,179.8393,489.1142,182.5444,486.4091,187.5125,493.91,181.13" style="stroke:#555555;stroke-width:1.0;"/></g><!--link LogUser to UC_Pull--><g id="link_LogUser_UC_Pull"><path d="M304.74,334.13 C343.85,320.36 396,302 396,302 C396,302 448.9149,286.3968 494.2949,273.0168 " fill="none" id="LogUser-to-UC_Pull" style="stroke:#555555;stroke-width:1.0;"/><polygon fill="#555555" points="500.05,271.32,490.2862,270.0286,495.2541,272.734,492.5486,277.702,500.05,271.32" style="stroke:#555555;stroke-width:1.0;"/></g><!--link LogUser to UC_Arch--><g id="link_LogUser_UC_Arch"><path d="M304.6,349.58 C339.1,350.06 383.6306,350.6773 430.0406,351.3173 " fill="none" id="LogUser-to-UC_Arch" style="stroke:#555555;stroke-width:1.0;"/><polygon fill="#555555" points="436.04,351.4,427.096,347.2763,431.0405,351.3311,426.9857,355.2755,436.04,351.4" style="stroke:#555555;stroke-width:1.0;"/></g><!--link Admin to UC_CreaUser--><g id="link_Admin_UC_CreaUser"><path d="M611.79,745.92 C679.63,703.55 783,639 783,639 C783,639 850.0035,622.5225 903.7735,609.3025 " fill="none" id="Admin-to-UC_CreaUser" style="stroke:#555555;stroke-width:1.0;"/><polygon fill="#555555" points="909.6,607.87,899.9053,606.1344,904.7446,609.0638,901.8153,613.9031,909.6,607.87" style="stroke:#555555;stroke-width:1.0;"/></g><!--link Admin to UC_CreaTeam--><g id="link_Admin_UC_CreaTeam"><path d="M611.72,768.41 C691.56,749.61 828.7698,717.3155 906.4298,699.0255 " fill="none" id="Admin-to-UC_CreaTeam" style="stroke:#555555;stroke-width:1.0;"/><polygon fill="#555555" points="912.27,697.65,902.5927,695.8197,907.4032,698.7962,904.4266,703.6067,912.27,697.65" style="stroke:#555555;stroke-width:1.0;"/></g><!--link Admin to UC_CreaProj--><g id="link_Admin_UC_CreaProj"><path d="M611.79,824.65 C679.63,874.71 783,951 783,951 C783,951 846.8911,967.0568 900.2611,980.4768 " fill="none" id="Admin-to-UC_CreaProj" style="stroke:#555555;stroke-width:1.0;"/><polygon fill="#555555" points="906.08,981.94,898.3272,975.866,901.2309,980.7207,896.3763,983.6245,906.08,981.94" style="stroke:#555555;stroke-width:1.0;"/></g><!--link Admin to UC_AddMem--><g id="link_Admin_UC_AddMem"><path d="M611.72,782 C672.4,782 763.6,782 840.85,782 " fill="none" id="Admin-to-UC_AddMem" style="stroke:#555555;stroke-width:1.0;"/><polygon fill="#555555" points="846.85,782,837.85,778,841.85,782,837.85,786,846.85,782" style="stroke:#555555;stroke-width:1.0;"/></g><!--link Admin to UC_AddProj--><g id="link_Admin_UC_AddProj"><path d="M596.8,830.6 C663.09,905.85 783,1042 783,1042 C783,1042 836.9584,1057.3302 888.1684,1071.8802 " fill="none" id="Admin-to-UC_AddProj" style="stroke:#555555;stroke-width:1.0;"/><polygon fill="#555555" points="893.94,1073.52,886.3759,1067.2125,889.1304,1072.1535,884.1894,1074.9079,893.94,1073.52" style="stroke:#555555;stroke-width:1.0;"/></g><!--link Admin to UC_AssIss--><g id="link_Admin_UC_AssIss"><path d="M584.65,830.58 C647.05,929.49 783,1145 783,1145 C783,1145 846.6708,1161.0081 900.0108,1174.4081 " fill="none" id="Admin-to-UC_AssIss" style="stroke:#555555;stroke-width:1.0;"/><polygon fill="#555555" points="905.83,1175.87,898.0758,1169.7977,900.9807,1174.6518,896.1266,1177.5566,905.83,1175.87" style="stroke:#555555;stroke-width:1.0;"/></g><!--link Admin to UC_Change--><g id="link_Admin_UC_Change"><path d="M576.39,830.69 C621.7,929.22 720,1143 720,1143 C720,1143 783,1236 783,1236 C783,1236 841.9343,1251.7778 894.3943,1265.8278 " fill="none" id="Admin-to-UC_Change" style="stroke:#555555;stroke-width:1.0;"/><polygon fill="#555555" points="900.19,1267.38,892.5312,1261.1878,895.3602,1266.0865,890.4616,1268.9155,900.19,1267.38" style="stroke:#555555;stroke-width:1.0;"/></g><!--link Admin to UC_Archive--><g id="link_Admin_UC_Archive"><path d="M611.72,799.37 C692.33,823.63 831.6446,865.5609 908.7646,888.7709 " fill="none" id="Admin-to-UC_Archive" style="stroke:#555555;stroke-width:1.0;"/><polygon fill="#555555" points="914.51,890.5,907.0446,884.076,909.7221,889.059,904.7391,891.7366,914.51,890.5" style="stroke:#555555;stroke-width:1.0;"/></g><!--reverse link LogUser to Admin--><g id="link_LogUser_Admin"><path d="M296.8844,413.2886 C346.7544,497.0986 449.3,649.6 510.31,733.28 " fill="none" id="LogUser-backto-Admin" style="stroke:#555555;stroke-width:1.0;"/><polygon fill="none" points="287.68,397.82,291.7282,416.3568,302.0406,410.2205,287.68,397.82" style="stroke:#555555;stroke-width:1.0;"/></g><!--link LogUser to Admin--><!--link GenUser to LogUser--><!--link PkgAuth to PkgIssues--><!--link PkgIssues to PkgAdmin--><!--link GenUser to PkgAuth--><!--link LogUser to PkgIssues--><!--link Admin to PkgAdmin--><!--SRC=[dLVTKkis4BxFK-p0nO4BCd08XoH3cN6CdNeca4n-QAUTJaV7NXmLHygHPIWvvLtwBdsnhXGdSMpJ3lWY8ws-NNtxevNo2QPSoqH2X0b4dCMABHQiqVW4Fxph8uMp9hZ3Ep_epyREBy7mpeFRuNGuzjvlAy473Lg2ul5S4ok5eUPIDD97BfQC6CAIXOyineb-IH3CCXDnWWL0EcUHVEOYXWUMfCMLEHFHi-9QewYi9LoWVbaYB6NoOYOc49CbMt6cCyM0PGiKcca6IrI0JrmpXS15g6J82tQ4Z3359LoS5eIAYKSZF3iz_L1yFpTXCWq67lJ7ZX-um_VRs769y85bYVQbq7TiWN0mmLWYp8A3Uj24hn3EpkiNNQeV1OSj-pKAc2p5aAK8tnj0Nuzo5YkPYMYjyDESQrolI1MXoirS-cstVLEGJ-SyV1IOfbHX5rRkA2MVS_Y5_QnuHxJTU6rKg-LzF7etxhbxkJLSPLUCotPk2x8dasYV0GirQN-lm-sRQf5UIUtggfzXgg-lt-1VPFfM9AiUr6npWq-OIAhijxSwRtNQDxtgLfyxxTDUfxnLZgxPQeeqlcM2il8VktLw5vtUb-fkRQ_LSYgEvUZN3nskyoRSU7vm5wmxbpVmRhsxQG174_oMeQ06aE3n-msJnid92Go2Usym6C9P5_epRp8rmiQw9hfz5AXuE4jHTO6bG7CpXctQ6vloFN32a8w1F32mqMFiP7eEX_wbt_4xUGWt9-w0rgXJyP1fRk4pztS3NqUdIEbpbnoduN3aZOkq1ZAECTgoecdEgb0bEsPzOaeT6Y58KsAzORYUmQ7Nyo_yNfcZgv1Pn8QX4Un3xdcQiOIlLgnWc93t79_taJvFj2gXZ0pLFcwK9SdOv3JL6vWHlRLjBuiT5Sxv4oz6aYHMmVxaTE2gsTnj2bqA5Vv9IOWeJfMedtVXrhbp-linTw855pRSTWJbSr8JRmiyAiAEj-LXRHpwBS_rB_FOLmqOLQlHLyk9LbceuT1sn5oZah4P-RHYnPIPmgZ7RetdI3El8fquvfc8-IqklYfPr76YY8HMu_KD_YCbOzHvRiW76uN_SI7NaKLg9FkZXbgQOYos2YLkHcUZygRkNeMJZEOrhDZYAsSJUbh8_HD1hvKOQspdDKdbMInA_eHvi3xM1Llc2JSOU7rdtVq6mtxWKXFqnvxhUX_eVvjcTd9olMr1ZKqloONsr9TazdoNPFQObcJs93RMbLumPoko8hNLLv7QnEz9ywehosg0wspkcrndR1-NfuRYvocCpAkHe_xdRpYwfNxEu5l6xODII05ABcX8Zye44lOYCtsyzVdgB-eWrl27adj1xqVtHxhPfkCXZ8D-S3Eap0O_vnVVDBWV7d_4xYpbR27XrpcF8XI_qRDRaDl6dmUfLkQ1d33xY5_P0_k4ojnBzFpn9gC1bTVKCUuuL7fqZml1mA6JfZWStM-GnxiwAksIXsPN5gNrRRHwE_CZ5ePpqpBsTjZSfsKBsrkiiRlFQZ3RZTmcE8dvwy3CNmK9GqNN23rIZCD7rZC4evAJa3M-sRyzkLbpO2hE5G0vjtMvGRqDI-rV]--></g></svg>